<svg width="42" height="42" viewBox="0 0 42 42" fill="none" xmlns="http://www.w3.org/2000/svg">
<path fill-rule="evenodd" clip-rule="evenodd" d="M15.141 31.017C14.8516 30.7161 14.6934 30.3127 14.7013 29.8953C14.7091 29.4779 14.8824 29.0807 15.183 28.791L23.4528 21L15.183 13.209C15.0269 13.0674 14.9008 12.8958 14.8121 12.7046C14.7235 12.5133 14.6742 12.3063 14.6671 12.0956C14.66 11.8849 14.6952 11.675 14.7707 11.4782C14.8462 11.2814 14.9605 11.1018 15.1067 10.9499C15.2529 10.7981 15.4281 10.6772 15.6219 10.5943C15.8157 10.5114 16.0242 10.4683 16.2349 10.4674C16.4457 10.4666 16.6545 10.5081 16.849 10.5894C17.0434 10.6708 17.2196 10.7903 17.367 10.941L26.817 19.866C26.9694 20.0129 27.0907 20.189 27.1735 20.3839C27.2563 20.5787 27.299 20.7883 27.299 21C27.299 21.2117 27.2563 21.4212 27.1735 21.6161C27.0907 21.8109 26.9694 21.9871 26.817 22.134L17.367 31.059C17.0662 31.3484 16.6627 31.5066 16.2453 31.4987C15.8279 31.4908 15.4307 31.3176 15.141 31.017Z" fill="black"/>
</svg>
